<svg xmlns="http://www.w3.org/2000/svg" viewBox="0 0 259.9 157.7">
  <path fill="#071C44" d="M143.7 50.4L133.9 61c4.6 4.2 4.9 11.4.6 16a11.3 11.3 0 0 1-16 .6l-9.8 10.6c10.4 9.6 26.7 9 36.4-1.4 9.6-10.5 9-26.8-1.4-36.4zM112.3 30.5v13.9H127l12.9-13.9zM116.3 69.7l37.1-39.2h-4.8l-37.1 39.2z"/>
  <g fill="#071C44">
    <path d="M43.7 129.7l2.8-2.5a4.7 4.7 0 0 0 4.2 2.3c2.5 0 3.6-1.4 3.6-3.1 0-2.1-1.4-3.2-4.2-3.2H48V121l5-5h-8v-3.4h12.7v3l-5 5c3.7.6 5.6 2.9 5.6 6 0 3.7-2.6 6.7-7.6 6.7a8.3 8.3 0 0 1-7-3.6zM69.5 118.9l4.3-6.4h4.4l-6.6 9.7 6.9 10.5h-4.9l-4.7-7-4.8 7h-4.4l7-10.3-6.6-9.9h5.1l4.3 6.4zM95.2 128.2h-8.8l-1.8 4.5h-4.1l8.1-20.2h4.6l8.1 20.2H97l-1.8-4.5zm-4.4-11.5l-3.1 8h6.2l-3.1-8z"/>
  </g>
  <g fill="#071C44">
    <path d="M107.8 132.7H104v-15.1h3.8v1.5a5.1 5.1 0 0 1 4.2-1.9c3.5 0 5.7 2.5 5.7 6.4v9.1h-3.8v-8.6c0-2-1.2-3.3-3.1-3.3-1.9 0-3.1 1.3-3.1 3.3v8.6zM136.8 111.1v21.6h-3.9v-1.6a5.8 5.8 0 0 1-4.6 2.1c-4 0-7.2-3.3-7.2-8 0-4.6 3.1-8 7.2-8 2 0 3.5.7 4.6 2v-8.1h3.9zm-3.9 14.1c0-2.4-1.7-4.3-4-4.3s-4 1.9-4 4.3 1.7 4.4 4 4.4c2.3-.1 4-2 4-4.4zM140.2 125.2c0-4.4 3.3-8 7.6-8s7.6 3.3 7.6 7.7l-.1 1.3h-11.2c.4 2.1 2 3.6 4.3 3.6 1.5 0 2.8-.7 3.7-1.6l2 2.6a7.8 7.8 0 0 1-5.8 2.4 8 8 0 0 1-8.1-8zm3.9-1.5h7.3c-.4-2.1-1.8-3.2-3.6-3.2-1.9 0-3.2 1.3-3.7 3.2zM162.4 132.7h-3.8v-15.1h3.8v1.6a4.2 4.2 0 0 1 3.7-2.1c1 0 1.8.3 2.4.8l-1.6 3.6c-.5-.4-1.3-.7-2-.7-1.5 0-2.5 1.3-2.5 3.3v8.6zM182.1 128.4c0 2.5-2.2 4.7-6.3 4.7-2.9 0-5-1-6.3-2.5l2.1-2.5a5.6 5.6 0 0 0 4.4 1.9c1.5 0 2.2-.6 2.2-1.6 0-2.7-8.1-1.4-8.1-6.8 0-2.3 2-4.5 5.8-4.5 2.7 0 4.8.9 6 2.5l-2.2 2.3a4.6 4.6 0 0 0-3.7-1.7c-1.3 0-2.1.6-2.1 1.4.1 2.8 8.2 1.2 8.2 6.8zM184.3 125.2c0-4.4 3.3-8 7.6-8s7.6 3.3 7.6 7.7l-.1 1.3h-11.2c.4 2.1 2 3.6 4.3 3.6 1.5 0 2.8-.7 3.7-1.6l2 2.6a7.8 7.8 0 0 1-5.8 2.4 8 8 0 0 1-8.1-8zm4-1.5h7.3c-.4-2.1-1.8-3.2-3.6-3.2-1.9 0-3.2 1.3-3.7 3.2zM206.6 132.7h-3.8v-15.1h3.8v1.5a5.1 5.1 0 0 1 4.2-1.9c3.5 0 5.7 2.5 5.7 6.4v9.1h-3.8v-8.6c0-2-1.2-3.3-3.1-3.3-1.9 0-3.1 1.3-3.1 3.3v8.6z"/>
  </g>
</svg>
