<svg xmlns="http://www.w3.org/2000/svg" viewBox="0 75 192.8 41.8">
  <g fill-rule="evenodd" clip-rule="evenodd">
    <path fill="#4e4a79" d="M132.4 93.6l.1.2v.2l.1.2V94.5l.1.2v1.6l-.1.2-.1.3-.1.3-.1.2-.1.3-.1.2-.2.3-.1.2-.2.2-.1.2-.2.3-.2.2-.2.1-.2.2-.2.2-.2.1-.2.1-.2.2h-.3l-.2.2h-.2l-.3.2h-.5l-.2.1H126l-.2-.1-.3-.1-.2-.1-.3-.1-.2-.1-.2-.1-.2-.2-.2-.1-.3-.2-.2-.2-.1-.1-.2-.2-.2-.2-.2-.3-.1-.2-.2-.2-.1-.2-.1-.3-.1-.2-.1-.3-.1-.3v-.3l-.2-.2V94l.1-.2v-.3l.2-.2v-.2l.2-.2.1-.3.1-.2.2-.2.1-.2.2-.2.1-.1.2-.2.2-.2.2-.2.2-.1.2-.1.2-.2.3-.1.2-.1.2-.1.3-.1h.2l.3-.2h.7l.3-.1H128.1l-1.5 6.5.6.3 15.3-18.3H190v35.5H2.9V78.6h127.9l-1.9 8h-3l-.4.1-.5.1-.5.1-.4.2-.4.1-.5.2-.4.2-.4.3-.4.2-.4.3-.3.3-.4.3-.3.3-.3.3-.3.3-.2.3-.3.3-.2.4-.2.3-.2.4-.1.4-.2.3-.1.4-.1.4-.1.4v.4l-.1.4v2.2l.1.5.1.4.1.5.2.4.1.4.2.4.2.4.2.4.2.4.3.4.2.3.3.3.3.4.3.3.4.3.3.2.4.3.4.2.4.2.4.2.4.2.4.2h.5l.4.2.5.1h.4l.5.1h2.9l.5-.2.5-.1.4-.1.4-.2.4-.2.4-.2.4-.2.4-.2.3-.3.4-.2.3-.3.3-.3.3-.3.3-.3.3-.4.2-.3.2-.4.3-.4.2-.4.1-.4.2-.4.1-.5.1-.4.1-.5.1-.4V96l.1-.5V93.9l-.1-.3v-.3l-.2-.3v-.3l-.1-.3-.1-.3-.1-.2-.2-.3-.1-.3-.2-.2-.1-.3-.2-.2-2.8 3zm-78.8-5.8h-4.7l-6.3 15.8h4.1l1.2-3.2h7l1.4 3.2h4.3l-7-15.8zm.2 9.9H49l2.3-6.1 2.5 6zm24-4l-5.1-5.9h-3.4v15.8h3.9v-9.9l4.3 5h.5l4.3-5v9.9h4V87.8h-3.5l-5 5.9zm19.6-5.9v15.8H106l.3-.1h.4l.3-.1.4-.1.3-.1.3-.1.2-.1.3-.1.2-.2.2-.1.2-.2.2-.1.2-.2.2-.2.1-.1.1-.2.2-.2v-.2l.2-.2v-.2l.1-.2.1-.2v-.2l.1-.2V99.7l.1-.2V97.9l-.1-.1v-.2l-.1-.1-.1-.2v-.1l-.1-.2-.1-.1-.1-.2-.1-.1-.1-.2h-.1l-.1-.2-.1-.1-.2-.1-.1-.2h-.2l-.1-.2h-.2l-.1-.2h-.2l-.2-.2h-.1l-.2-.1h-.2l-.2-.1-.2-.1.2-.1.2-.2.3-.1.2-.2.2-.1.1-.2.2-.2.1-.2.2-.2v-.2l.2-.3v-.2l.1-.2v-.3l.1-.2V91.1l-.1-.2v-.2l-.1-.1v-.2l-.2-.2v-.1l-.2-.2v-.2l-.2-.1-.1-.2-.2-.1-.1-.2-.2-.1-.2-.1-.1-.2-.2-.1-.2-.1-.3-.1-.2-.1-.2-.1-.3-.1h-.3l-.2-.1h-.3l-.3-.1h-8zm3.9 2.9h3l.2.1.2.1.1.1.2.1.1.1.1.2h.1v.2l.2.2V93l-.1.1v.2l-.2.1-.1.1-.1.1-.2.2h-.1l-.2.1h-.2l-.3.1H101.3v-3.3zm0 6.3H105.2l.2.1.2.1.2.1.2.1.1.1.2.2v.1l.2.2v.1l.1.2V99.4l-.1.2v.2h-.1l-.1.1v.1h-.1l-.1.1-.1.1-.2.1-.2.1h-.2l-.3.1h-.3l-.3.1h-3.2V97zm55.4 3.5h-8V87.8h-4v15.8h12v-3.1zm18.3 0h-8V87.8h-4v15.8h12v-3.1zM21.5 87.8v15.8h4v-5.9H28l3.5 5.9h4.7l-4.6-6.8.4-.1.3-.2h.2l.1-.2h.2l.1-.2h.1l.2-.2v-.1l.2-.1.1-.1.1-.2h.1l.1-.2V95l.2-.1v-.1l.1-.2.1-.3.1-.3.1-.3v-2.2l-.1-.2-.1-.2v-.2l-.2-.2v-.2l-.2-.2-.1-.2-.2-.2-.1-.2-.2-.2-.2-.2-.1-.2-.2-.1-.3-.2-.2-.1-.2-.2h-.3l-.2-.2-.3-.1-.3-.1h-.3l-.4-.2h-8.8zm4 2.9H29l.2.2h.2l.3.1.1.2.2.1.1.1.2.2v.2l.2.2v.4l.1.2V93.5l-.2.2v.1l-.2.2-.1.2-.2.1-.2.1-.1.1-.2.1-.2.1H29l-.2.1h-3.3v-4.1z"/>
  </g>
</svg>
