<svg version="1" xmlns="http://www.w3.org/2000/svg" width="666.667" height="666.667" viewBox="0 0 500.000000 500.000000"><path d="M238.9 34.4c-.2.2-3.8.6-7.9 1C157.5 41.3 88.7 90.2 56.9 159c-1.9 4.1-3.4 7.7-3.5 8 0 .3-.8 2.3-1.7 4.4-1.5 3.3-6.5 18.7-7.3 22.1-3 13.3-5.5 28.2-6.2 36.5-1.1 14.5-.5 38.2 1.2 47.6.2 1.1.7 3.9 1.1 6.4 1.4 8.4 1.6 9.5 3.5 17 4.1 16.2 9.1 29.5 16.8 44.5 33.5 65.9 98.8 109.9 172.2 116.2 16 1.3 41.2.5 51.5-1.7 2.2-.5 5.8-1.1 8-1.5 12.7-1.9 32.6-8.3 47.9-15.3 59.5-27.3 104.2-81.2 119.1-143.6 4.6-19.5 5.6-27.4 6-47.6.3-18.5-.8-29.4-5-51.1-2.2-11.6-10.5-34.9-17.2-48.4-6.7-13.4-19-31.7-30.3-45-10.1-11.9-28.7-28-43.7-38-24.4-16.3-56-28.5-83.8-32.5-4.4-.6-9.1-1.3-10.5-1.6-3-.6-35.6-1.4-36.1-1zm32.1 3.1c11.3 1.1 14.8 1.7 25.9 4.1 20.3 4.5 38.5 11.3 55 20.3 4.1 2.3 7.5 4.1 7.7 4.1.6 0 16.9 11.3 22.9 15.9 9.2 7 28.5 26.5 36.8 37.3 14.5 18.7 27.1 42.6 34 64.3 2.4 7.6 6.5 24.5 7.1 29.5.3 2.5.8 5.6 1.1 7 2.3 11.6 2.3 44.4 0 57-.2 1.4-.9 5.2-1.4 8.5-4.9 29.1-18.7 62-36.5 86.5-25.7 35.4-62.5 62.8-103.5 76.9-13.9 4.8-36.7 9.6-50.7 10.6-7.2.6-28.3.6-34.4.1-5.7-.5-16.3-1.8-18.5-2.2-1.1-.2-3.3-.7-5-1-6.5-1.1-22.8-5.6-29.7-8-46.1-16.5-84.6-47.5-110.6-89.1-5-7.9-14.6-27.1-17.1-34.3-.7-1.9-1.7-4.4-2.1-5.5-2.1-5-7.1-24-8.6-32.3-.2-1.2-.6-3.3-.8-4.6-.5-2.7-1.5-11.1-2.1-17.1-.6-5.7-.6-28 0-34 2.5-27.6 9.5-52.7 21-76.1 19.1-38.9 47-68.6 85.8-91.3 4.8-2.8 9-5.1 9.2-5.1.2 0 3.6-1.5 7.5-3.4 13.3-6.5 40.1-14.6 53.5-16.2 2.8-.4 5.3-.8 5.7-1 .3-.2 5.3-.7 11-1 5.6-.4 10.4-.8 10.6-.9.4-.4 20 .4 26.2 1z"/><path d="M192.2 97.6c.2.8-1 12.9-1.7 16.5-.1.8-.6 4.2-.9 7.5-.4 3.2-.8 7-1.1 8.4-.2 1.4-.7 4.6-1 7.2-1 8.8-1.6 14.3-2 16.8-.3 1.4-.7 5-1 8-.3 3-.7 6.4-.9 7.5-.2 1.1-.7 4.9-1.1 8.5-.4 3.6-.8 7.2-1 8-.2.8-.6 4.4-1 8-.4 3.6-.8 7.2-1 8-.3 1.4-1.1 7.9-2.1 16.2-.5 4.5-1.2 10.3-1.9 15.5-.4 3.5-1.3 10.1-2 16.3-.2 1.4-.6 4.9-.9 7.7-.3 2.9-.8 6.5-1 8-.9 5.6-1.6 10.9-2.2 16.8-.3 3.3-.8 6.9-1 8-.2 1.1-.7 4.8-1 8.2l-.7 6.3h46.7c25.7 0 46.5.3 46.3.7-.3.5-.8 3.7-1.2 7.3-1.2 10.8-1.2 11.3-1.9 18-.4 3.6-.9 7.6-1.1 9-.3 1.4-.7 5-1 8-.3 3-.7 7.1-1 9-.2 1.9-.7 6-1.1 9-.3 3-.7 6.8-.9 8.5-.2 1.6-.6 5.5-1 8.5-.3 3-.8 6.6-1 8-.2 1.4-.7 5.4-1 9-.3 3.6-.8 7.6-1 9-1.2 7.2-1.5 11-.8 11.1 1.7.2 6.9.9 9.6 1.4 1.9.3 2.7 0 2.8-1 .1-.8.2-1.8.3-2.3.2-.7 1.5-11.1 2.2-17.2.4-4.2 1.3-12.1 2-17.5.6-5.1 1.1-9.6 1.9-16.5 1.1-10.2 1.5-13.5 2-17 .3-1.9.7-5.8 1-8.5.3-2.8.7-6.8 1-9 .6-4.1.9-6.7 2.1-19 .3-3.9.9-7.3 1.3-7.6.3-.4 7.6-.9 16.1-1.2 18.3-.6 30.5-3.3 43.4-9.6 28.7-14.1 46.3-41.9 45.1-71.1-.4-11.3-.8-13.5-4-22-7.3-19.1-23.9-33-46.5-39-7.1-1.9-12-2.3-29.7-2.7l-21.3-.5-.1 2.3c0 1.3-.2 3.1-.3 3.9-.2.8-.6 4.4-1 8-.4 3.6-1.1 9.6-1.6 13.5-.5 3.8-1.2 9.7-1.5 13-.3 3.3-.8 7.1-1 8.5-.3 1.4-.7 5.2-1 8.5-.3 3.3-.9 9.4-1.5 13.5-1.2 9.7-1.7 14.4-3 26-1.5 13.8-2.8 24.3-3.6 30.8l-.6 4.2-39.7-.2c-26.3-.2-39.5-.6-39.4-1.3.1-.6.4-3.7.8-7s.8-7.1 1-8.5c.2-1.4.7-5.2 1.1-8.5.3-3.3.7-6.7.9-7.5.1-.8.6-4 .9-7 1.1-8.3 1.4-11.2 3.5-28 1.1-8.5 2.3-18 2.6-21 .4-3 .8-6.6 1-8 .2-1.4.6-5 1-8 .3-3 .8-6.6 1-8 .3-1.4.7-4.5 1-7 .7-6.7 1.7-14.2 2.1-16.3.2-1 .6-4.6.9-8 .3-3.4.8-7.3 1-8.7.7-4.1 2.2-15.4 3.1-24 .3-3 .9-8.1 1.3-11.3.7-4.8.5-5.7-.8-5.7-.9 0-4-.3-6.9-.6-2.9-.4-5.2-.2-5 .2zm126.3 76.7c25.6 6.1 40.1 18.9 45 39.8 4.4 19-2.4 39.9-17.9 55.4-15.2 15.1-33.1 21.8-60 22.4l-11.8.3.6-2.9c.3-1.5.8-5.3 1.1-8.3.2-3 .7-7.1.9-9 .3-1.9 1-8 1.6-13.5.7-5.5 1.4-11.4 1.6-13 .2-1.7.6-5.3.9-8 .3-2.8.7-6.8.9-9 .3-2.2.8-6.3 1.1-9 .3-2.8.8-7 1-9.5.3-2.5.7-5.6 1-7 .2-1.4.7-5.2 1-8.5.4-3.3 1-9.1 1.5-13 .5-3.8.6-7.3.3-7.8-.6-1 27-.4 31.2.6z"/></svg>