<svg xmlns="http://www.w3.org/2000/svg" viewBox="0 0 512 512">
	<g fill="#006B54">
		<path d="M427 60h-69v-1c0-14-11-25-25-25h-36a42 42 0 0 0-82 0h-36c-14 0-25 11-25 25v1H85c-14 0-25 11-25 25v274a8 8 0 0 0 16 0V85c0-5 4-9 9-9h18v385a8 8 0 0 0 8 8h290a8 8 0 0 0 8-8V162a8 8 0 0 0-8-8 8 8 0 0 0-8 8v291H119V76h35v18a8 8 0 0 0 8 8h188a8 8 0 0 0 8-8V76h35v43a8 8 0 0 0 8 8 8 8 0 0 0 8-8V76h18c5 0 9 4 9 9v402c0 5-4 9-9 9H85c-5 0-9-4-9-9v-86a8 8 0 0 0-16 0v86c0 14 11 25 25 25h342c14 0 25-11 25-25V85c0-14-11-25-25-25zm-85 26H170V59c0-5 4-9 9-9h43a8 8 0 0 0 8-8 26 26 0 0 1 52 0 8 8 0 0 0 8 8h43c5 0 9 4 9 9v27z"/>
		<path d="M256 26a8 8 0 0 0-8 8v8a8 8 0 0 0 16 0v-8a8 8 0 0 0-8-8zM364 313l-86-171c-4-8-12-14-22-14s-18 6-22 14l-86 171a25 25 0 0 0 45 23l31-63h64l31 63c6 12 21 17 34 11 12-6 17-21 11-34zm-19 20c-4 2-9 0-12-5l-33-67a8 8 0 0 0-8-4h-72a8 8 0 0 0-8 4l-33 67a9 9 0 0 1-17-8l86-171c3-6 13-6 16 0l86 171c2 5 0 11-5 13z"/>
		<path d="M283 227l-20-39c-3-6-11-6-14 0l-20 39c-2 5 2 11 8 11h38c6 0 10-6 8-11zm-33-5l6-12 6 12h-12zM350 145h-9v-9a8 8 0 0 0-8-8 8 8 0 0 0-8 8v9h-9a8 8 0 1 0 0 16h9v9a8 8 0 0 0 8 9 8 8 0 0 0 8-9v-9h9a8 8 0 1 0 0-16zM324 376H188a8 8 0 0 0 0 16h136a8 8 0 0 0 8-8 8 8 0 0 0-8-8zM265 410h-77a8 8 0 0 0 0 16h77a8 8 0 0 0 8-8 8 8 0 0 0-8-8z"/>	
	</g>
</svg>
