<svg xmlns="http://www.w3.org/2000/svg" viewBox="0 0 297 297">
	<g fill="#006B54">
		<path d="M113 185l7-4a6 6 0 0 0 2-8l-13-22a6 6 0 0 0-8-3l-7 4a6 6 0 0 1-3 1c-3 0-6-2-6-6v-8a6 6 0 0 0-6-6H53a6 6 0 0 0-6 6v8c0 4-3 6-6 6a6 6 0 0 1-3-1l-7-4a6 6 0 0 0-8 3l-13 22a6 6 0 0 0 3 8l6 4c4 2 4 8 0 10l-6 4a6 6 0 0 0-3 8l13 23a6 6 0 0 0 8 2l7-4a6 6 0 0 1 3-1c3 0 6 3 6 6v8a6 6 0 0 0 6 6h26a6 6 0 0 0 6-6v-8a6 6 0 0 1 9-5l7 4a6 6 0 0 0 8-2l13-23a6 6 0 0 0-2-8l-7-4c-4-2-4-8 0-10zm-47 23a17 17 0 1 1 0-35 17 17 0 0 1 0 35zM108 24a8 8 0 1 0-11 11l14 14c-53 3-96 45-100 97l1-2a19 19 0 0 1 17-10c9-37 42-66 82-68L97 80a8 8 0 0 0 11 11l28-28a8 8 0 0 0 0-11l-28-28zM210 65a32 32 0 1 0 0-65 32 32 0 0 0 0 65zM273 152v-44c0-13-8-24-20-27l-17-3a3 3 0 0 0-3 1l-20 54c-1 3-5 3-6 0l-20-54a3 3 0 0 0-3-1l-18 3c-11 3-19 14-19 27v44c0 7 5 12 12 12h102c7 0 12-5 12-12zM287 163c0 9-8 15-17 15-7 41-41 72-83 75l14-14a8 8 0 1 0-11-12l-28 28a8 8 0 0 0 0 12l28 28a8 8 0 0 0 11 0 8 8 0 0 0 0-12l-14-14c56-3 100-49 100-106z"/>
		<path d="M217 77l-3-1h-8l-3 1a4 4 0 0 0-1 5l5 6-2 18 4 10c0 2 2 2 2 0l4-10-2-18 4-6a4 4 0 0 0 0-5z"/>
	</g>
</svg>
