<svg xmlns="http://www.w3.org/2000/svg" viewBox="0 0 480 480">
	<g fill="#006B54">
		<path d="M236 328a40 40 0 1 0 0 80 40 40 0 0 0 0-80zm0 64a24 24 0 1 1 0-48 24 24 0 0 1 0 48z"/>
		<path d="M308 344h-13v-1l9-9a8 8 0 0 0 0-11l-23-23a8 8 0 0 0-11 0l-9 9h-1v-13a8 8 0 0 0-8-8h-32a8 8 0 0 0-8 8v13h-1l-9-9a8 8 0 0 0-11 0l-23 23a8 8 0 0 0 0 11l9 9v1h-13a8 8 0 0 0-8 8v32a8 8 0 0 0 8 8h13v1l-9 9a8 8 0 0 0 0 11l23 23a8 8 0 0 0 11 0l9-9h1v13a8 8 0 0 0 8 8h32a8 8 0 0 0 8-8v-13h1l9 9a8 8 0 0 0 11 0l23-23a8 8 0 0 0 0-11l-9-9v-1h13a8 8 0 0 0 8-8v-32a8 8 0 0 0-8-8zm-8 32h-10a8 8 0 0 0-8 6 47 47 0 0 1-4 9 8 8 0 0 0 2 9l7 8-11 11-8-7a8 8 0 0 0-9-2 47 47 0 0 1-9 4 8 8 0 0 0-6 8v10h-16v-10a8 8 0 0 0-6-8 47 47 0 0 1-9-4 8 8 0 0 0-9 2l-8 7-11-11 7-8a8 8 0 0 0 2-9 47 47 0 0 1-4-9 8 8 0 0 0-8-6h-10v-16h10a8 8 0 0 0 8-6 47 47 0 0 1 4-9 8 8 0 0 0-2-9l-7-8 11-11 8 7a8 8 0 0 0 9 2 47 47 0 0 1 9-4 8 8 0 0 0 6-8v-10h16v10a8 8 0 0 0 6 8 47 47 0 0 1 9 4 8 8 0 0 0 9-2l8-7 11 11-7 8a8 8 0 0 0-2 9 47 47 0 0 1 4 9 8 8 0 0 0 8 6h10v16zM388 224a40 40 0 1 0 0 80 40 40 0 0 0 0-80zm0 64a24 24 0 1 1 0-48 24 24 0 0 1 0 48z"/>
		<path d="M460 240h-13v-1l9-9a8 8 0 0 0 0-11l-23-23a8 8 0 0 0-11 0l-9 9h-1v-13a8 8 0 0 0-8-8h-16V8a8 8 0 0 0-8-8H20a8 8 0 0 0-8 8v464a8 8 0 0 0 8 8h360a8 8 0 0 0 8-8V344h16a8 8 0 0 0 8-8v-13h1l9 9a8 8 0 0 0 11 0l23-23a8 8 0 0 0 0-11l-9-9v-1h13a8 8 0 0 0 8-8v-32a8 8 0 0 0-8-8zM348 16h24v168a8 8 0 0 0-8 8v13h-1l-9-9a8 8 0 0 0-6-2V16zm-16 448H28V16h304v191l-12 12a8 8 0 0 0 0 11l9 9v1h-13a8 8 0 0 0-8 8v32a8 8 0 0 0 8 8h13v1l-9 9a8 8 0 0 0 0 11l12 12v143zm40 0h-24V334a8 8 0 0 0 6-2l9-9h1v13a8 8 0 0 0 8 8v120zm80-192h-10a8 8 0 0 0-8 6 47 47 0 0 1-4 9 8 8 0 0 0 2 9l7 8-11 11-8-7a8 8 0 0 0-9-2 47 47 0 0 1-9 4 8 8 0 0 0-6 8v10h-16v-10a8 8 0 0 0-6-8 47 47 0 0 1-9-4 8 8 0 0 0-9 2l-8 7-11-11 7-8a8 8 0 0 0 2-9 47 47 0 0 1-4-9 8 8 0 0 0-8-6h-10v-16h10a8 8 0 0 0 8-6 47 47 0 0 1 4-9 8 8 0 0 0-2-9l-7-8 11-11 8 7a8 8 0 0 0 2 2h1a8 8 0 0 0 2 1h2a8 8 0 0 0 2-1 47 47 0 0 1 9-4 8 8 0 0 0 6-8v-10h16v10a8 8 0 0 0 6 8 47 47 0 0 1 9 4 8 8 0 0 0 9-2l8-7 11 11-7 8a8 8 0 0 0-2 9 47 47 0 0 1 4 9 8 8 0 0 0 8 6h10v16z"/>
		<path d="M308 56v16h-80V56h80zM212 56v16H52V56h160zM308 88v16H124V88h184zM108 88v16H52V88h56zM308 120v16h-96v-16h96zM196 120v16H52v-16h144zM308 152v16H52v-16h256zM308 184v16h-80v-16h80zM212 184v16H52v-16h160zM308 216v16H108v-16h200zM92 216v16H52v-16h40zM172 248v16H52v-16h120z"/>
	</g>
</svg>
