<svg xmlns="http://www.w3.org/2000/svg" viewBox="0 0 480 480">
	<g fill="#006B54">
		<path d="M442 148c-4-1-8 2-9 6l-8 42L259 32c-3-3-8-3-11 0s-3 8 0 11l165 165-42 8c-4 1-7 5-6 10 1 4 4 6 8 6h1l57-11 2-1 4-4v-2l11-56c1-4-2-9-6-10z"/><path d="M472 440h-8V296c0-5-3-8-8-8h-96c-5 0-8 3-8 8v144h-56V168c0-5-3-8-8-8h-96c-5 0-8 3-8 8v272h-56V32c0-5-3-8-8-8H24c-5 0-8 3-8 8v408H8c-5 0-8 3-8 8s3 8 8 8h464c5 0 8-3 8-8s-3-8-8-8zm-360 0H32V40h80v400zm168 0h-80V176h80v264zm168 0h-80V304h80v136z"/>
	</g>
</svg>
