<svg xmlns="http://www.w3.org/2000/svg" viewBox="0 0 512 512">
	<g fill="#006B54">
		<path d="M405 43h-44c-5-13-16-22-30-22h-33a53 53 0 0 0-85 0h-32c-14 0-25 9-30 22h-44c-24 0-43 19-43 42v384c0 24 19 43 43 43h298c24 0 43-19 43-43V85c0-23-19-42-43-42zM171 53c0-6 4-10 10-10h38c4 0 8-2 9-6a32 32 0 0 1 56 0 11 11 0 0 0 9 6h38c6 0 10 4 10 10v11c0 12-9 21-21 21H192c-12 0-21-9-21-21V53zm256 416c0 12-10 22-22 22H107c-12 0-22-10-22-22V85c0-11 10-21 22-21h42c0 24 19 43 43 43h128c24 0 43-19 43-43h42c12 0 22 10 22 21v384z"/>
		<path d="M181 171h-42a11 11 0 0 0-11 10v43a11 11 0 0 0 11 11h42a11 11 0 0 0 11-11v-43a11 11 0 0 0-11-10zm-10 42h-22v-21h22v21zM181 277h-42a11 11 0 0 0-11 11v43a11 11 0 0 0 11 10h42a11 11 0 0 0 11-10v-43a11 11 0 0 0-11-11zm-10 43h-22v-21h22v21zM181 384h-42a11 11 0 0 0-11 11v42a11 11 0 0 0 11 11h42a11 11 0 0 0 11-11v-42a11 11 0 0 0-11-11zm-10 43h-22v-22h22v22zM253 195c-4-4-11-4-15 0l-3 3-3-3a11 11 0 1 0-16 15l4 3-4 3a11 11 0 1 0 16 16l3-4 3 4a11 11 0 0 0 7 3 11 11 0 0 0 8-19l-3-3 3-3c4-4 4-11 0-15zM317 195c-4-4-11-4-15 0l-3 3-3-3a11 11 0 1 0-16 15l4 3-4 3a11 11 0 1 0 16 16l3-4 3 4a11 11 0 0 0 7 3 11 11 0 0 0 8-19l-3-3 3-3c4-4 4-11 0-15zM253 302c-4-4-11-4-15 0l-3 3-3-3a11 11 0 1 0-16 15l4 3-4 3a11 11 0 1 0 16 15l3-3 3 3a11 11 0 0 0 7 3 11 11 0 0 0 8-18l-3-3 3-3c4-4 4-11 0-15zM317 302c-4-4-11-4-15 0l-3 3-3-3a11 11 0 1 0-16 15l4 3-4 3a11 11 0 1 0 16 15l3-3 3 3a11 11 0 0 0 7 3 11 11 0 0 0 8-18l-3-3 3-3c4-4 4-11 0-15zM253 408c-4-4-11-4-15 0l-3 4-3-4a11 11 0 1 0-16 16l4 3-4 3a11 11 0 1 0 16 15l3-3 3 3a11 11 0 0 0 7 3 11 11 0 0 0 8-18l-3-3 3-3c4-5 4-11 0-16zM381 195c-4-4-11-4-15 0l-3 3-3-3a11 11 0 1 0-16 15l4 3-4 3c-4 5-4 11 0 16a11 11 0 0 0 8 3c3 0 5-1 8-3l3-4 3 4a11 11 0 0 0 7 3 11 11 0 0 0 8-19l-3-3 3-3c4-4 4-11 0-15z"/>
	</g>
</svg>
