<svg xmlns="http://www.w3.org/2000/svg" viewBox="0 0 480 480">
	<g fill="#006B54">
		<path d="M184 160v16h-16v-16h16zM184 192v16h-16v-16h16zM184 224v16h-16v-16h16zM184 256v16h-16v-16h16zM216 160v16h-16v-16h16zM216 192v16h-16v-16h16zM216 224v16h-16v-16h16zM216 256v16h-16v-16h16zM248 160v16h-16v-16h16zM248 192v16h-16v-16h16zM248 224v16h-16v-16h16zM248 256v16h-16v-16h16zM280 160v16h-16v-16h16zM216 128v16h-16v-16h16zM248 128v16h-16v-16h16zM280 128v16h-16v-16h16zM280 192v16h-16v-16h16zM280 224v16h-16v-16h16zM280 256v16h-16v-16h16zM312 160v16h-16v-16h16zM312 192v16h-16v-16h16zM312 224v16h-16v-16h16zM312 256v16h-16v-16h16z"/>
		<path d="M472 120H352V8a8 8 0 0 0-8-8H136a8 8 0 0 0-8 8v112H8a8 8 0 0 0-8 8v288a8 8 0 0 0 8 8h17a48 48 0 0 0-1 8v40a8 8 0 0 0 8 8h416a8 8 0 0 0 8-8v-40a48 48 0 0 0-1-8h17a8 8 0 0 0 8-8V128a8 8 0 0 0-8-8zM344 344a16 16 0 1 1-32 0 16 16 0 0 1 32 0zm-192-16a16 16 0 1 1 0 32 16 16 0 0 1 0-32zm-48 136H40v-32a32 32 0 0 1 64 0v32zm-48-96a16 16 0 1 1 32 0 16 16 0 0 1-32 0zm49 29a48 48 0 0 0-10-7 32 32 0 1 0-46 0 48 48 0 0 0-19 18H16V136h112v187a32 32 0 0 0 1 43 48 48 0 0 0-24 31zm79 67h-64v-56a32 32 0 0 1 64 0v56zm96 0h-80v-56a40 40 0 0 1 80 0v56zm-64-136a24 24 0 1 1 48 0 24 24 0 0 1-48 0zm73 52a56 56 0 0 0-23-22 40 40 0 1 0-57-4 40 40 0 0 0 5 4 56 56 0 0 0-23 22 48 48 0 0 0-16-14c12-13 12-33 0-45a32 32 0 0 0-31-8V16h192v297a32 32 0 0 0-8-1c-18 0-32 14-32 32a32 32 0 0 0 9 22 48 48 0 0 0-16 14zm71 52v32h-64v-56a32 32 0 0 1 64 0v24zm80 32h-64v-32a32 32 0 0 1 64 0v32zm-48-96a16 16 0 1 1 32 0 16 16 0 0 1-32 0zm72 40h-14a48 48 0 0 0-19-18 32 32 0 1 0-46 0 48 48 0 0 0-10 7 48 48 0 0 0-24-31c12-12 12-31 1-43V136h112v272z"/>
		<path d="M392 184v128h-16V184h16zM440 184v128h-16V184h16zM56 184v128H40V184h16zM104 184v128H88V184h16zM288 32h-96a8 8 0 0 0-8 8v64a8 8 0 0 0 8 8h96a8 8 0 0 0 8-8V40a8 8 0 0 0-8-8zm-8 64h-80V48h80v48z"/>
	</g>
</svg>
