<svg xmlns="http://www.w3.org/2000/svg" viewBox="0 0 480 480">
	<g fill="#006B54">
		<path d="M124 103a48 48 0 0 0-35-15h-2a48 48 0 0 0-35 15 44 44 0 0 0-12 32l1 22c1 24 22 43 47 43s46-19 47-43l1-22a44 44 0 0 0-12-32zm-5 53c-1 16-15 28-31 28s-30-12-31-28v-7a72 72 0 0 0 42-15 36 36 0 0 0 20 14v8zm-10-38a8 8 0 0 0-6-7 8 8 0 0 0-9 4s-10 16-38 18a28 28 0 0 1 8-19 32 32 0 0 1 23-10h2a32 32 0 0 1 23 10 28 28 0 0 1 8 18 19 19 0 0 1-11-14zM436 295a48 48 0 0 0-35-15h-2a48 48 0 0 0-35 15 44 44 0 0 0-12 32l1 22c1 24 22 43 47 43s46-19 47-43l1-22a44 44 0 0 0-12-32zm-4 31l-1 22c-1 16-15 28-31 28s-30-12-31-28l-1-22a28 28 0 0 1 8-20 32 32 0 0 1 23-10h2a32 32 0 0 1 23 10 28 28 0 0 1 8 20z"/>
		<path d="M247 116c-8-8-22-8-31 0l-89 90a8 8 0 0 1-6 2H40c-22 0-40 18-40 40v112a24 24 0 0 0 32 23v9a8 8 0 0 0 8 8h96a8 8 0 0 0 8-8V262a8 8 0 0 1 2-5l102-109c8-9 8-23-1-32zm-11 20v1L134 246a24 24 0 0 0-6 16v122H48V264a8 8 0 0 0-16 0v96a8 8 0 0 1-16 0V248c0-13 11-24 24-24h81a24 24 0 0 0 17-7l90-89a6 6 0 0 1 8 0 6 6 0 0 1 0 8z"/>
		<path d="M88 232a8 8 0 0 0-8 8v96a8 8 0 0 0 16 0v-96a8 8 0 0 0-8-8zM260 295a48 48 0 0 0-35-15h-2a48 48 0 0 0-35 15 44 44 0 0 0-12 32l1 22c1 24 22 43 47 43s46-19 47-43l1-22a44 44 0 0 0-12-32zm-4 31l-1 22c-1 16-15 28-31 28s-30-12-31-28l-1-22a28 28 0 0 1 8-20 32 32 0 0 1 23-10h2a32 32 0 0 1 23 10 28 28 0 0 1 8 20zM265 400h-82c-22 0-39 17-39 39v33a8 8 0 0 0 16 0v-33c0-13 10-23 23-23h82c13 0 23 10 23 23v33a8 8 0 0 0 16 0v-33c0-22-17-39-39-39zM441 400h-82c-22 0-39 17-39 39v33a8 8 0 0 0 16 0v-33c0-13 10-23 23-23h82c13 0 23 10 23 23v33a8 8 0 0 0 16 0v-33c0-22-17-39-39-39zM456 0H176c-14 0-24 11-24 24v120a8 8 0 0 0 16 0V48h296v192a8 8 0 0 1-8 8H183a8 8 0 0 0 0 16h273c14 0 24-11 24-24V24c0-13-10-24-24-24zm8 32H168v-8a8 8 0 0 1 8-8h280a8 8 0 0 1 8 8v8z"/>
		<path d="M440 102a8 8 0 0 0-8 8v114a8 8 0 0 0 16 0V110a8 8 0 0 0-8-8zM408 152a8 8 0 0 0-8 8v64a8 8 0 0 0 16 0v-64a8 8 0 0 0-8-8zM376 136a8 8 0 0 0-8 8v80a8 8 0 0 0 16 0v-80a8 8 0 0 0-8-8zM344 184a8 8 0 0 0-8 8v32a8 8 0 0 0 16 0v-32a8 8 0 0 0-8-8z"/>
		<path d="M444 65a8 8 0 0 0-11 3l-27 41-25-19a8 8 0 0 0-12 2l-31 63-31 23a8 8 0 0 0-1 11 8 8 0 0 0 11 1l32-24a8 8 0 0 0 2-2l28-56 24 18a8 8 0 0 0 12-2l32-48a8 8 0 0 0-3-11zM288 64h-96a8 8 0 0 0 0 16h96a8 8 0 0 0 0-16zM336 64h-16a8 8 0 0 0 0 16h16a8 8 0 0 0 0-16z"/>
	</g>
</svg>
