<svg xmlns="http://www.w3.org/2000/svg" viewBox="0 56.97 795.04 681.1">
	<g fill="#006B54">
		<path d="M0 647.59c0 49.9 40.59 90.48 90.48 90.48h654.3v-40.21h-41.9V597.32h41.9v-17.6h50.26v-40.2h-30.16V438.99h30.16v-40.21h-32.68V364.4l-49.64-92.99h52.16v-54.07L633.66 56.97H170.74L51.36 245.07C30.94 261.7 17.6 286.7 17.6 315.01c0 49.58 40.11 89.89 89.59 90.38-33.3 13.37-56.92 45.85-56.92 83.87 0 27.6 12.68 52.04 32.24 68.65C36.39 562.02 0 600.43 0 647.6zM57.8 315c0-18.75 10.44-34.95 25.7-43.59h599.27v93.86h-574.7A50.33 50.33 0 0 1 57.81 315zm82.95 123.98h583.91v100.53H140.75a50.32 50.32 0 0 1-50.27-50.26 50.32 50.32 0 0 1 50.27-50.27zM90.48 597.32h572.19v100.53H90.47a50.32 50.32 0 0 1-50.26-50.26 50.32 50.32 0 0 1 50.27-50.27z" />
	</g>
</svg>
