<svg xmlns="http://www.w3.org/2000/svg" viewBox="0 0 480 480">
	<g fill="#006B54">
		<path d="M448 0H80C62 0 48 14 48 32v392H8a8 8 0 0 0-8 8v16c0 18 14 32 32 32h368c18 0 32-14 32-32V136h40a8 8 0 0 0 8-8V32c0-18-14-32-32-32zM32 464c-9 0-16-7-16-16v-8h352v8a32 32 0 0 0 4 16H32zM416 32v416a16 16 0 1 1-32 0v-16a8 8 0 0 0-8-8H64V32c0-9 7-16 16-16h340a32 32 0 0 0-4 16zm48 88h-32V32a16 16 0 1 1 32 0v88z"/>
		<path d="M168 101a32 32 0 1 0-48 0 49 49 0 0 0-24 43v40a8 8 0 0 0 8 8h80a8 8 0 0 0 8-8v-40a49 49 0 0 0-24-43zm-24-37a16 16 0 1 1 0 32 16 16 0 0 1 0-32zm32 80v32h-64v-32c0-1 0-32 32-32 17-1 31 13 32 30a31 31 0 0 1 0 2z"/>
		<path d="M152 128v32h-16v-32h16zM168 285a32 32 0 1 0-48 0 49 49 0 0 0-24 43v40a8 8 0 0 0 8 8h80a8 8 0 0 0 8-8v-40a49 49 0 0 0-24-43zm-24-37a16 16 0 1 1 0 32 16 16 0 0 1 0-32zm32 80v32h-64v-32c0-1 0-32 32-32 17-1 31 13 32 30a31 31 0 0 1 0 2z"/>
		<path d="M152 312v32h-16v-32h16zM384 96v16H216V96h168zM384 128v16H216v-16h168zM352 160v16H216v-16h136zM384 64v16H280V64h104zM384 280v16H216v-16h168zM384 312v16H216v-16h168zM352 344v16H216v-16h136zM384 248v16H280v-16h104zM264 64v16h-16V64h16zM264 248v16h-16v-16h16z"/>
	</g>
</svg>
