<svg xmlns="http://www.w3.org/2000/svg" viewBox="0 0 480 480">
	<g fill="#006B54">
		<path d="M432 228h-57l-6-32h55c13 0 24-11 24-24V60c0-13-11-24-24-24H248c-13 0-24 11-24 24v112c0 13 11 24 24 24h55l-6 32H192v-32c0-18-14-32-32-32H64c-18 0-32 14-32 32v144c0 18 14 32 32 32h24v20l-51 47a21 21 0 1 0 28 31l71-63v45a24 24 0 1 0 48 0v-45l71 63a21 21 0 0 0 29-31 18 18 0 0 0-1 0l-51-47v-20h40a32 32 0 0 0 0-64h-80v-32h192v176a24 24 0 1 0 48 0V276a24 24 0 1 0 0-48zM64 356c-9 0-16-7-16-16V196c0-9 7-16 16-16h96c9 0 16 7 16 16v144a32 32 0 0 0 1 7 32 32 0 0 0 2 5 31 31 0 0 0 1 4H64zM54 458a5 5 0 0 1-3 2 5 5 0 0 1-4-10l52-46h16l-61 54zm114-6a8 8 0 0 1-16 0v-48h16v48zm8-64h-72v-16h112v16h-40zm97 62a5 5 0 0 1-4 10 5 5 0 0 1-3-2l-61-54h16l52 46zm-1-126a16 16 0 1 1 0 32h-64c-9 0-16-7-16-16v-16h80zM240 60a8 8 0 0 1 8-8h176a8 8 0 0 1 8 8v88H240V60zm8 120a8 8 0 0 1-8-8v-8h192v8a8 8 0 0 1-8 8H248zm111 48h-46l6-32h34l6 32zm57 224a8 8 0 0 1-16 0V276h16v176zm16-192H192v-16h240a8 8 0 0 1 0 16z"/>
		<path d="M56 132c-31 0-56 25-56 56v72h16v-72c0-22 18-40 40-40h24v-16H56zM16 276v16H0v-16h16zM424 4h-32v16h32c22 0 40 18 40 40v24h16V60c0-31-25-56-56-56zM376 4v16h-16V4h16zM464 308v112h-16V308h16zM344 100v16h-16v-16h16zM376 100v16h-16v-16h16zM312 100v16h-16v-16h16z"/>
	</g>
</svg>
