<svg xmlns="http://www.w3.org/2000/svg" width="200" height="200">
  <path fill="#006B54" d="M178.8 83.2a5 5 0 0 1-.8 1.4 6.4 6.4 0 0 1-.4.5c-.5.6-1.3 1.2-2.1 1.7L108 126c-2.3 1.3-5.4 2-8.5 2-3.1 0-6.2-.7-8.6-2l-27.3-15.6-8.2-4.7a10.2 10.2 0 0 1-.8-.6 8.1 8.1 0 0 1-1.3-1.1 5.8 5.8 0 0 1-1-1.3 4.5 4.5 0 0 1-.4-1.3v-.4 13c0 1.8 1.2 3.6 3.5 5h.2L91 139.3c2.4 1.4 5.5 2 8.6 2 3 0 6.2-.6 8.5-2l67.4-39.2c2.3-1.3 3.5-3 3.5-4.9V82a4.2 4.2 0 0 1-.2 1.3z"/>
  <path fill="#006B54" d="M124.3 82a11 11 0 0 1 5.3-1.2c2 0 4 .4 5.4 1.2l14.4 8.3 7.7-4.4c3-1.7 3-4.5 0-6.1L135 67a11 11 0 0 0-5.4-1.2c-1.9 0-3.8.4-5.3 1.2l-1.6 1-4.4 2.5-.1 15 5.4-3.2.7-.4zM74.8 101.8l3.8 2.1 3.4 2 .5.2 6.9-4c1-.8 2-1.9 2.6-3.1a11 11 0 0 0 1.6-5.2l.1-9-18.9 10.9c-3 1.6-3 4.4 0 6z"/>
  <path fill="#17A1AB" d="M175.5 77L140 56.7c-2.4-1.4-5.5-2-8.6-2-3 0-6.2.6-8.5 2l-1 .5-3.6 2.2.1 2v9.2l4.3-2.5 1.6-1a11 11 0 0 1 5.3-1.2c2 0 4 .4 5.4 1.2l22 12.7c3 1.6 3 4.4 0 6l-7.6 4.5-24.8 14.3-8.5 4.9-.2.4-5.8 3.2c-1.5 1-6.1 3.6-9.7 2.8-1-.2-2.7-1-5-2.2-4-2.1-9.3-5.3-12.8-7.5h-.1l-.5-.3-3.4-2-3.8-2.1c-3-1.7-3-4.5 0-6.1l19-11v-7.6L52 101v.4l.5 1.3c.2.5.5.9.9 1.3a8.1 8.1 0 0 0 2.1 1.7l8.2 4.7L91 126c2.4 1.3 5.5 2 8.6 2 3 0 6.2-.7 8.5-2l67.4-39.2a8.8 8.8 0 0 0 2.5-2.2c.4-.4.6-1 .8-1.4l.2-1.3c0-1.8-1.2-3.6-3.5-5z"/>
  <path fill="#0065AD" d="M118.3 59.4a5 5 0 0 0-2.3-3.6l-11.5-6.7c-1.5-.9-3.6-.8-6 .6L30.7 88.1c-2.3 1.3-4.5 3.7-6 6.3s-2.6 5.7-2.6 8.4l-.4 41c0 2.6 1 4.5 2.4 5.4l11.5 6.7c1.5 1 3.6.8 6-.5l39-22-9.8-5.6-13-7.4-11.5 6.5.2-16.6c0-1.7.6-3.6 1.6-5.3a11 11 0 0 1 3.8-4h.1L93.8 77v7.7l-.2 9A11 11 0 0 1 92 99a12 12 0 0 1-3.7 4l-5.7 3.2c3.5 2.2 8.8 5.4 12.9 7.5 2.2 1.2 4 2 4.9 2.2 3.6.8 8.2-1.9 9.7-2.8l5.8-3.2.2-.4c1.2-2.4 2-5 2-7.3l.1-16.6.1-15 .1-9.3a9.5 9.5 0 0 0-.1-2zm-5.8-4z"/>
  <path d="M118.3 59.4a5 5 0 0 0-2.3-3.6 4.1 4.1 0 0 0-1.3-.5 4.6 4.6 0 0 0-.5 0 5.6 5.6 0 0 0-1.7 0l-2.5 1.1-67.8 38.4A17.6 17.6 0 0 0 36 101a17.6 17.6 0 0 0-2.6 8.4l-.4 41a9.7 9.7 0 0 0 .2 1.8l.5 1.6c.4.9 1 1.6 1.8 2 1.5 1 3.6.8 6-.5l39-22-9.8-5.6-19.3 11c-3 1.7-5.3.3-5.2-3v-9l.2-16.5c0-1.7.6-3.6 1.6-5.3a11 11 0 0 1 3.8-4h.1L93.8 77l7.7-4.4c3-1.6 5.3-.3 5.2 3.1v1.5l-.1 15v9c-.1 1.7-.7 3.5-1.7 5.2s-2.3 3.1-3.8 4l-5.5 3.1-.1.1c2.2 1.2 4 2 4.9 2.2 3.6.8 8.2-1.9 9.7-2.8l5.8-3.2.2-.4c1.2-2.4 2-5 2-7.3l.1-16.6.1-15 .1-9.3a9.5 9.5 0 0 0-.1-2z" opacity=".4"/>
</svg>
