<svg xmlns="http://www.w3.org/2000/svg" width="200" height="200">
  <path fill="#842AE3" d="M178.6 107.2a6.9 6.9 0 0 0 .4-2.2c0-3-2-6-5.9-8.2l-42.1-24a141.2 141.2 0 0 1 2 21.2l23.7 13.5 2 1.5c-.7.8-1.6 1.5-2.8 2.2l-10 5.7-35.2 20.2c-3 1.7-7 2.5-10.9 2.5-3 0-5.9-.5-8.5-1.4A16.9 16.9 0 0 1 89 137l-15.6-9-9-5.2-20.5-11.7a12.2 12.2 0 0 1-2-1.4 11 11 0 0 1 2.8-2.3l17.4-10v-2a162.7 162.7 0 0 1 .3-10.3c.2-3.2.5-6.3.9-9.3l-36.7 21c-3.9 2.2-5.9 5.1-5.9 8v7.5c0 3 2 6 6 8.2l30.1 17.2L71 146l2.2 1.2 12.4 7.1c1.6 1 3.3 1.7 5.2 2.2 1.6.4 3.3.8 5 1h.3a35.2 35.2 0 0 0 7.6 0 27 27 0 0 0 10.4-3.2l2.7-1.5 7-4 49.3-28.2c4-2.3 5.9-5.2 5.9-8.2V105c0 .7-.1 1.5-.4 2.2z"/>
  <path fill="#27F5CE" d="M81.1 151.8l-8-4.6-2-1.2c4.8 10.9 11.4 18.2 19 20.7l7.1 1.9c-6-2-11.6-8-16-16.8zM108.5 29a63.3 63.3 0 0 0-15.2-4.5C79 24.5 67 46.2 63.2 76c-.4 3-.7 6-.9 9.3a162.7 162.7 0 0 0-.3 10.4v2c.1 9 .9 17.6 2.2 25.3l9 5.2a150 150 0 0 1-2.7-35.4 156 156 0 0 1 1-12.8c.3-3.3.8-6.5 1.4-9.6 4.8-25.3 16-43 28.8-43 2.3 0 4.6.6 6.8 1.6zM100 169.2h-.4.3z"/>
  <path fill="#23DFD4" d="M133 94a159.6 159.6 0 0 0-.5-8.6 149.1 149.1 0 0 0-.6-6.3 141.4 141.4 0 0 0-1-6.4c-3.7-22-12.1-38.6-22.4-43.8a15 15 0 0 0-6.8-1.6c-12.9 0-24 17.7-28.8 43a139 139 0 0 0-1.4 9.6 156 156 0 0 0-1 12.8 163.5 163.5 0 0 0-.1 5.6c0 10.6 1 20.7 2.9 29.8l15.6 9a16.7 16.7 0 0 0 2.4 1c2.6 1 5.6 1.5 8.5 1.5 4 0 8-.8 11-2.5l11.5-6.7 8.3-4.7c1.6-8.5 2.4-17.7 2.4-27.4a165.9 165.9 0 0 0 0-4.3zM114 154.3c-.8.6-1.8 1-2.7 1.4a26 26 0 0 1-2.5.8 29.1 29.1 0 0 1-5.1 1 35.2 35.2 0 0 1-7.6 0h-.4a31.3 31.3 0 0 1-4.9-1c-1.9-.5-3.6-1.3-5.2-2.2l-4.5-2.5c4.5 8.8 10 14.8 16.1 16.8l2.4.5h.3c.6.2 1.2.2 1.8.2 8.6 0 16.4-7.8 22-20.5l-6.9 4-2.7 1.5z"/>
  <g opacity=".4">
    <path d="M41.7 109.8a11 11 0 0 1 2.9-2.3l17.4-10v-2l.1-7.3-18.3 10.6c-5.3 3-6 7.6-2 11zM156.7 107.5l2 1.5c3-3.3 2-7.5-2.8-10.2l-23.4-13.4c.3 2.8.4 5.7.5 8.6l23.7 13.5z"/>
    <path d="M178.6 107.2a8.3 8.3 0 0 1-1 2.1 11.3 11.3 0 0 1-2 2 16.2 16.2 0 0 1-2.5 1.8L146 128.7 114 147c-4 2.3-9.1 3.4-14.3 3.4s-10.3-1.1-14.2-3.4l-32.4-18.5L26.5 113c-1.4-.8-2.6-1.8-3.6-2.8a9.6 9.6 0 0 1-1.4-2 7.7 7.7 0 0 1-.5-1.1 6.9 6.9 0 0 1-.4-2.2v7.4c0 3 2 6 6 8.2l30.1 17.2L71 146l2.2 1.2 12.4 7.2a31.4 31.4 0 0 0 10.2 3.1h.3a35.2 35.2 0 0 0 7.6 0 27 27 0 0 0 10.4-3.1l2.7-1.6 7-4 49.3-28.2c4-2.3 5.9-5.2 5.9-8.2V105c0 .7-.1 1.5-.4 2.2z"/>
  </g>
</svg>
