<svg xmlns="http://www.w3.org/2000/svg" width="200" height="200">
  <path fill="#17A1AB" d="M165.7 55.3L113 25c-3.5-2-8-3-12.7-3s-9.2 1-12.7 3L34.7 55.3c-3.5 2-5.3 4.6-5.3 7.3 0 2.6 1.8 5.2 5.3 7.2l12 6.9 24.4 14 16.4 9.3c3.5 2 8 3 12.7 3s9.2-1 12.7-3l16.4-9.3 24.5-14 12-6.9c3.4-2 5.2-4.6 5.2-7.2 0-2.7-1.8-5.3-5.3-7.3z"/>
  <path fill="#006B54" d="M165.7 69.8l-12 6.9-24.4 14-16.4 9.3c-3.5 2-8 3-12.7 3s-9.2-1-12.7-3L71 90.7l-24.4-14-12-6.9c-3.5-2-5.3-4.6-5.3-7.2v19.7c0 1.5.6 3 1.6 4.3 1 1 2.1 2 3.7 3l19.2 11 33.6 19.2c3.5 2 8 3 12.7 3s9.2-1 12.7-3l33.6-19.2 19.2-11c1.6-1 2.8-2 3.7-3 1-1.4 1.6-2.8 1.6-4.3V62.6c0 2.6-1.8 5.2-5.3 7.2zm-4.4 15c-.3 2.9-2 5.1-4 5-1.8-.2-3.2-2.7-2.9-5.6.3-2.9 1.9-5 3.7-5h.2c.7 0 1.4.5 2 1.2.7 1 1.1 2.6 1 4.4z"/>
  <path fill="#0065AD" d="M171 90.8c0-1.4-.6-2.9-1.6-4.2-.9 1-2 2-3.7 3l-19.1 11-33.7 19.2c-3.5 2-8 3-12.7 3s-9.2-1-12.7-3l-33.6-19.2-19.2-11c-1.6-1-2.8-2-3.7-3a6.9 6.9 0 0 0-1.6 4.2v19.8c0 1.4.5 2.8 1.5 4a6.8 6.8 0 0 0-1.5 4.2v19.7c0 2.7 1.8 5.3 5.3 7.3L87.5 176c3.5 2 8.1 3 12.7 3s9.2-1 12.7-3l52.8-30.2c3.5-2 5.3-4.6 5.3-7.3v-19.7c0-1.4-.5-2.8-1.5-4.1 1-1.3 1.5-2.7 1.5-4.1V90.8zm-141.3 2l.3.6a6.6 6.6 0 0 1-.4-1.3l.1.7zm0 28l.3.6a6.6 6.6 0 0 1-.4-1.3l.1.7z"/>
  <path fill="#0065AD" d="M157.4 89.8c1.8.1 3.6-2.1 3.8-5 .2-1.8-.2-3.4-1-4.4a2.7 2.7 0 0 0-1.9-1.2h-.2c-1.8 0-3.4 2.1-3.7 5-.3 2.9 1 5.4 3 5.6z"/>
  <path d="M169.7 122.7l-.8.9a12.1 12.1 0 0 1-2 1.7l-1.2.8-52.8 30.2c-3.5 2-8 3-12.7 3s-9.2-1-12.7-3l-52.8-30.2a15.9 15.9 0 0 1-1.3-.8 12.1 12.1 0 0 1-2-1.7 9.3 9.3 0 0 1-.7-1 6.7 6.7 0 0 1-1.3-3.8v19.7c0 2.7 1.8 5.3 5.3 7.3L87.5 176c3.5 2 8 3 12.7 3s9.2-1 12.7-3l52.8-30.2c3.5-2 5.3-4.6 5.3-7.3v-19.7c0 .7-.1 1.3-.3 2a7.5 7.5 0 0 1-1 1.9zm-8.4 18c-.3 3-2 5.2-4 5-1.8-.1-3.2-2.6-2.9-5.5.3-3 2-5.2 3.9-5 1.9.2 3.2 2.7 3 5.6z" opacity=".4"/>
  <path d="M170.7 92.8a7.4 7.4 0 0 1-1 2l-.8.8a12.1 12.1 0 0 1-2 1.7c-.3.3-.7.6-1.2.8l-11.7 6.7-41 23.5c-3.6 2-8.2 3-12.8 3s-9.2-1-12.7-3l-41.1-23.5-11.7-6.7a15.9 15.9 0 0 1-1.3-.8 12.1 12.1 0 0 1-2-1.7 9.3 9.3 0 0 1-.7-.9 6.7 6.7 0 0 1-1.3-3.9v19.8c0 1.4.5 2.8 1.5 4 .9 1.2 2.1 2.3 3.8 3.3L87.5 148c3.5 2 8.1 3 12.7 3s9.2-1 12.7-3l52.8-30.2c1.7-1 3-2 3.8-3.2 1-1.3 1.5-2.7 1.5-4.1V90.8a6.2 6.2 0 0 1-.3 2zm-9.4 20c-.3 3-2 5.2-4 5s-3.2-2.6-2.9-5.5 2-5.2 3.9-5c.7 0 1.3.4 1.8 1 .8 1 1.3 2.7 1.1 4.6zM157.4 89.8c1.8.1 3.6-2.1 3.8-5 .2-1.8-.2-3.4-1-4.4a2.7 2.7 0 0 0-1.9-1.2h-.2c-1.8 0-3.4 2.1-3.7 5-.3 2.9 1 5.4 3 5.6z" opacity=".4"/>
</svg>
