<svg xmlns="http://www.w3.org/2000/svg" width="200" height="200">
  <path fill="#006B54" d="M174 26.9c-1 0-17.4-.7-51.3 11.7-5 1.8-9.9 4-14.7 6.3a183.2 183.2 0 0 0-12.6 6.8 211 211 0 0 0-6.8 4.2c-36 23.3-62.4 55.2-62.4 55.2a356 356 0 0 1 62.4-47.3A368 368 0 0 1 113 50.5C148.2 32.8 174 26.9 174 26.9z"/>
  <path fill="#17A1AB" d="M110.4 26l-9.6-5.6-12.2 7v.1l6.7 3.8 5.4 3.2 12.2-7v11.8l-7.3 4.2-4.8 2.8h-.1L96 43.4 93.3 42l-4.7-2.7v-4.7C43 59.1 26.2 111.1 26.2 111.1S52.5 79.2 88.6 56a212.2 212.2 0 0 1 6.8-4.2A183.4 183.4 0 0 1 108 45a149 149 0 0 1 14.7-6.3c34-12.4 50.2-11.8 51.2-11.7h.1a122.6 122.6 0 0 0-63.6-1z"/>
  <path fill="#0065AD" d="M88.6 63.8v108.4l12 7h.2l12.1-7V50.5a371.2 371.2 0 0 0-12.2 6.4 371.7 371.7 0 0 0-12 6.9zM100.7 34.5l-5.4-3.2-6.7-3.8v11.8l4.7 2.7 2.7 1.5 4.7 2.7 4.9-2.7 7.3-4.2V27.5l-12.2 7z"/>
  <g opacity=".4">
    <path d="M100.7 179.2l12.2-7V50.5a371.2 371.2 0 0 0-12.2 6.4v122.3zM100.7 34.5v11.7l4.9-2.7 7.3-4.2V27.5l-12.2 7z"/>
  </g>
</svg>
