<svg xmlns="http://www.w3.org/2000/svg" width="200" height="200">
  <path fill="#27F5CE" d="M46.3 60.2l1.3-.8v-.3h.6l7.9-4.8L97.8 29l-16-8.5-51.2 30.2v61.7l15.7 8.9V60.1zM53.9 116.8a90.5 90.5 0 0 1-23.3 30.1v25l15.6 9.1v-25.4s24.1-20.6 29.4-51.8a7035.3 7035.3 0 0 0-21.7 13zM128.8 59.7l.5-.3v-.2l-.4.2v-.3h.7-.2.5l7.8-4.8L179.5 29l-16-8.5-51.2 30.2v61.7l15.7 8.9V60.1l.8-.5z"/>
  <path fill="#FFF" d="M129.4 59.1h.2-.7v.3l.4-.2.1-.1z"/>
  <path fill="#23DFD4" d="M97.8 47.2V29L56.1 54.3 48.2 59l-.6.4-1.3.8v61.1l7.6-4.5 21.7-13c-5.3 31.2-29.4 51.8-29.4 51.8V181c55-31.8 51.6-90.3 51.6-90.3V47.2zM179.5 90.7V29l-41.8 25.2L130 59l-1.1.7-.8.5V121.3l6.7-4a6459.5 6459.5 0 0 1 22.6-13.5c-5.3 31.2-29.4 51.8-29.4 51.8V181c55-31.8 51.6-90.3 51.6-90.3z"/>
  <path fill="#27F5CE" d="M134.7 117.3c-7.4 16.9-23 29.6-23 29.6l.6.5V172l15.6 9v-25.4s24-20.6 29.4-51.8a6459.5 6459.5 0 0 0-22.6 13.5z"/>
</svg>
