<svg xmlns="http://www.w3.org/2000/svg" width="200" height="200">
  <path fill="#006B54" d="M140.8 56.4zM144.2 59.4l-2.9-2.6c3.8 4-.3 15-9.3 24.9-9.2 10-20 15-24.2 11l3 2.9c4.2 3.8 15-1.2 24.2-11.1 9.2-10 13.3-21.2 9.2-25z"/>
  <path fill="#17A1AB" d="M141.1 56.6l-.2-.2.4.4-.2-.2z"/>
  <path fill="#17A1AB" d="M141.3 56.8l-.4-.4c-4.4-3.4-15 1.6-24 11.4-9.2 10-13.3 21.1-9.1 25 4.1 3.8 15-1.2 24.2-11.1 9-9.9 13.1-20.8 9.3-24.9z"/>
  <path fill="#006B54" d="M79.1 103.6zM82.4 106.7a2281.3 2281.3 0 0 0-2.8-2.6c3.8 4-.3 15-9.4 24.8-9.2 10-20 15-24.2 11.1l3 2.8c4.2 3.9 15-1.1 24.3-11s13.3-21.3 9.1-25.1z"/>
  <path fill="#17A1AB" d="M79.4 103.9l-.3-.2.5.4-.2-.2z"/>
  <path fill="#17A1AB" d="M79.6 104.1l-.5-.4c-4.4-3.4-15 1.6-23.9 11.3-9.2 10-13.3 21.2-9.2 25S61 139 70.2 129c9.1-9.8 13.2-20.8 9.4-24.8z"/>
  <path fill="#0065AD" d="M179.9 78.4l-5.4-20a4.2 4.2 0 0 0-6.7-2.3l-16.2 13a4.2 4.2 0 1 0 5.3 6.7l5.5-4.5a80.2 80.2 0 0 1-12.6 20.9c-10.4 12-24 19-34.5 17.6-6-.8-10.6-4.2-13.5-10.1a26.7 26.7 0 0 0-21-15.5C66.9 82.4 50.9 90 39 103.8a86.8 86.8 0 0 0-17.5 33.7 4.2 4.2 0 0 0 4.1 5.2 4.2 4.2 0 0 0 4.2-3.2c1.9-8.2 7.5-20.7 15.7-30.2 9.9-11.5 23.3-18 34.2-16.7 6.5.9 11.5 4.6 14.5 10.8 4.1 8.5 11 13.6 20 14.8 13.6 1.8 29.7-6.1 42-20.5a87.6 87.6 0 0 0 14-22.9l1.5 5.8a4.2 4.2 0 0 0 5.2 3 4.2 4.2 0 0 0 3-5.2z"/>
</svg>
