<svg xmlns="http://www.w3.org/2000/svg" width="200" height="200">
  <path fill="#17A1AB" d="M108.8 179.6c.1.1.1.1 0 0zM108.8 134.9l-.9.5-16 9.6-13.8-7.8v-46l-14.5-8.6V55.3L51 61l-28.3 45 26.8 65.8 13.9-8v-11.2l45.3 27 13.8-7.8v-45.1l-13.8 8.2z"/>
  <path fill="#003860" d="M151 109.9l-13.7 8.1v11.2l13.9 8-.2-27.3zM149.6 26.4l-12.4-5.7V48l-59 35v54.2L92 145V91.2l1-.7.1-.2.6-.1 56.1-34-.2-29.8zM92 145z"/>
  <path fill="#0065AD" d="M149.6 26.4l.2 29.8-56.1 34-.6.3-1.1.7V145l15.9-9.6.9-.5 13.8-8.2a21906.8 21906.8 0 0 1 14.7-8.7L151 110l.2 27.3L178 71.5l-28.4-45.1zM92 145c-.1 0-.1 0 0 0z"/>
  <path d="M49.6 171.8l13.9-8v-11.2l-13.8-8v27.2zM108.8 179.6l13.8-7.8v-45.1l-13.8 8.2v44.7zM78.1 107.3v-16l-14.5-8.7V55.3L51.2 61 51 91 78 107.3z" opacity=".4"/>
</svg>
